# xmcd
#
# Track frame offsets:
#	182
#	12090
#	25580
#	35370
#	50667
#	63292
#	75587
#	89530
#	98525
#	111105
#	127815
#	150107
#	160855
#	174170
#	185862
#	197780
#	208322
#	223955
#	238792
#	254630
#	294052
#	304957
#	317320
#	327130
#	340552
#
# Disc length: 4679
#
# Revision: 3
# Processed by: cddbd v1.5.1PL0 Copyright (c) Steve Scherf et al.
# Submitted via: CDmax 1.8
# Normalized: r2:DSETVAR1
#
DISCID=4b124519
DTITLE=Various Artist - I Got It Bad And That ASin't Good - 25 Blues And Soul Hits
DYEAR=1900
DGENRE=Blues
TTITLE0=Billie Holiday - I Got it Bad And That Ain't Good
TTITLE1=Muddy Waters - Sad Letter
TTITLE2=John Lee Hooker - Dusty Road
TTITLE3=Howlin' Wolf - Commit A Crime
TTITLE4=Sonny Boy Williamson - Cool Disposition
TTITLE5=Jimmy Reed - Little Rain
TTITLE6=Little Walter - Blues With A Feeling
TTITLE7=Billie Holiday - Please Don't Talk About Me When I've Gone
TTITLE8=Muddy Waters - Mean Mistreater
TTITLE9=John Lee Hooker - Process
TTITLE10=Howlin' Wolf - Moanin' At Midnight
TTITLE11=Leadbelly - Blue Tail Fly
TTITLE12=Elmore James - Dust My Broom
TTITLE13=Billie Holiday - Nice Work If You Can Get It
TTITLE14=John Lee Hooker - Whiskey And Wimmen
TTITLE15=Muddy Waters - Diamonds At Your Feet
TTITLE16=John Lee Hooker - I'm In The Mood
TTITLE17=Leadbelly - In New Orleans
TTITLE18=Howlin' Wolf - Killing Floor
TTITLE19=Billie Holiday - Fine And Mellow
TTITLE20=B. B. King - How Blue Can You Get
TTITLE21=Little Walter - Off The Wall
TTITLE22=Muddy Waters - Mean Red Spider
TTITLE23=Howlin' Wolf - Goin' Down Slow
TTITLE24=John Lee Hooker - Frisco Blues
EXTD=
EXTT0=
EXTT1=
EXTT2=
EXTT3=
EXTT4=
EXTT5=
EXTT6=
EXTT7=
EXTT8=
EXTT9=
EXTT10=
EXTT11=
EXTT12=
EXTT13=
EXTT14=
EXTT15=
EXTT16=
EXTT17=
EXTT18=
EXTT19=
EXTT20=
EXTT21=
EXTT22=
EXTT23=
EXTT24=
PLAYORDER=
